<svg xmlns="http://www.w3.org/2000/svg" xmlns:xlink="http://www.w3.org/1999/xlink" data-name="Layer 1" viewBox="0 0 819.01 819.01"><defs><linearGradient id="a" x1="527.08" x2="383.66" y1="577.47" y2="163.39" gradientTransform="rotate(74.31 471.839 380.126)" gradientUnits="userSpaceOnUse"><stop offset="0" stop-color="#1b1f29"/><stop offset="1" stop-color="#75839b"/></linearGradient><linearGradient xlink:href="#a" id="b" x1="411.13" x2="753.5" y1="407.75" y2="530.36"/><linearGradient xlink:href="#a" id="c" x1="542.06" x2="303.79" y1="347.8" y2="685.54"/></defs><path d="M797.74 484.66a83.71 83.71 0 0 1 0-150.31 37.76 37.76 0 0 0 19.76-44.48 422.41 422.41 0 0 0-35-84.35 37.7 37.7 0 0 0-45.35-17.38A83.71 83.71 0 0 1 630.88 81.86a37.73 37.73 0 0 0-17.39-45.36 422.38 422.38 0 0 0-84.35-35 37.76 37.76 0 0 0-44.48 19.76 83.68 83.68 0 0 1-75.15 46.84 83.69 83.69 0 0 1-75.16-46.84 37.75 37.75 0 0 0-44.48-19.74 422.38 422.38 0 0 0-84.35 35 37.71 37.71 0 0 0-17.38 45.36A83.72 83.72 0 0 1 81.86 188.14a37.71 37.71 0 0 0-45.36 17.38 422.38 422.38 0 0 0-35 84.35 37.76 37.76 0 0 0 19.76 44.48 83.69 83.69 0 0 1 46.84 75.16 83.68 83.68 0 0 1-46.84 75.15 37.77 37.77 0 0 0-19.74 44.48 422.38 422.38 0 0 0 35 84.35 37.73 37.73 0 0 0 45.36 17.39 83.71 83.71 0 0 1 106.26 106.27 37.71 37.71 0 0 0 17.38 45.36 421.79 421.79 0 0 0 84.35 35 37.75 37.75 0 0 0 44.48-19.75 83.71 83.71 0 0 1 150.31 0 37.75 37.75 0 0 0 44.48 19.75 421.79 421.79 0 0 0 84.35-35 37.72 37.72 0 0 0 17.39-45.36 83.71 83.71 0 0 1 106.28-106.27 37.72 37.72 0 0 0 45.35-17.39 422.41 422.41 0 0 0 35-84.35 37.77 37.77 0 0 0-19.77-44.48Zm-388.23 82.59a157.75 157.75 0 1 1 157.74-157.74 157.75 157.75 0 0 1-157.74 157.74Z" style="fill:#75839b"/><path d="M554.8 142.48a243.56 243.56 0 0 1-95 405 146.69 146.69 0 0 1-194.37-164.26A243.58 243.58 0 0 0 737.8 501.14c1.07-3.87 2.11-7.74 3-11.63 27-112.34-3.8-235.63-92.11-322.62S436.5 51 324.53 79.75a243.41 243.41 0 0 1 230.27 62.73Z" style="fill:url(#a)"/><path d="M141.48 339.76a243.74 243.74 0 0 0 21.61 304.63c2.33 2.45 4.64 4.92 7.06 7.32l1.16 1.14c2.64 2.58 5.34 5 8 7.52 134.5 123.68 343.82 119.42 473-11.77a339 339 0 0 0 85.49-147.46 243.58 243.58 0 0 1-472.37-117.92 146.64 146.64 0 0 1 240.44-84.34 242.48 242.48 0 0 0-103-55.91 244 244 0 0 0-261.38 96.79Z" style="fill:url(#b)"/><path d="M312.35 83.14A338.91 338.91 0 0 0 167 170.55C37.59 302 36.73 511.81 163.09 644.39a243.56 243.56 0 0 1 342.78-345.51c2.3 2 4.56 4 6.75 6.2 2.45 2.41 4.75 4.91 7 7.44a146.69 146.69 0 0 1-59.83 234.93 243.59 243.59 0 0 0-135.26-467.7q-6.12 1.57-12.18 3.39Z" style="fill:url(#c)"/></svg>